<?xml version="1.0" encoding="utf-8"?>
<!-- Generator: Adobe Illustrator 25.4.1, SVG Export Plug-In . SVG Version: 6.00 Build 0)  -->
<svg version="1.0" id="Слой_1" xmlns="http://www.w3.org/2000/svg" xmlns:xlink="http://www.w3.org/1999/xlink" x="0px" y="0px"
	 viewBox="0 0 442.2 36.85" enable-background="new 0 0 442.2 36.85" xml:space="preserve">
<g>
	<path fill="#1D1D1B" d="M11.25,11.22V8.66h7.57v2.56h6l5.3,4.46v7.17l-5.3,4.43h-6v2.2l2.78,0.73v5.52H8.47v-5.52l2.78-0.73v-2.2
		H5.22l-5.3-4.43v-7.17l5.3-4.46H11.25z M8.44,17.55l-0.95,0.77v1.83l0.95,0.8h2.82v-3.4H8.44z M18.83,17.55v3.4h2.78l0.95-0.8
		v-1.83l-0.95-0.77H18.83z"/>
	<path fill="#1D1D1B" d="M55.56,22.49l-5.3,4.43H41.8v2.56l2.78,0.73v5.52H31.45v-5.56l2.78-0.73V16.45l-2.78-0.73v-5.6h18.8
		l5.3,4.46V22.49z M41.8,16.45v4.13h5.23l0.95-0.81v-2.56l-0.95-0.77H41.8z"/>
	<path fill="#1D1D1B" d="M80.47,30.17v5.56H67.48v-5.56l1.94-0.73l-0.66-2.27h-5.52l-0.62,2.27l1.79,0.73v5.56H53.43v-5.56
		l2.82-0.73l3.73-12.99l-2.38-0.73v-5.6h14.78l4.94,19.31L80.47,30.17z M64.3,22.78h3.26l-1.65-5.74L64.3,22.78z"/>
	<polygon fill="#1D1D1B" points="105.74,16.45 105.74,29.44 108.52,30.17 108.52,35.73 96.49,35.73 96.49,30.17 98.13,29.44 
		98.13,24.97 91.95,24.97 91.95,29.44 93.63,30.17 93.63,35.73 81.6,35.73 81.6,30.17 84.38,29.44 84.38,16.45 81.6,15.72 
		81.6,10.12 93.63,10.12 93.63,15.72 91.95,16.45 91.95,20.58 98.13,20.58 98.13,16.45 96.49,15.72 96.49,10.12 108.52,10.12 
		108.52,15.72 	"/>
	<polygon fill="#1D1D1B" points="132.73,16.45 128.59,19.89 133.68,29.44 136.28,30.17 136.28,35.73 124.09,35.73 124.09,30.17 
		125.92,29.44 123.07,24.32 120.14,26.77 120.14,29.44 121.97,30.17 121.97,35.73 109.53,35.73 109.53,30.17 112.31,29.44 
		112.31,16.45 109.53,15.72 109.53,10.12 121.9,10.12 121.9,15.72 120.14,16.45 120.14,21.43 125.85,16.45 124.06,15.72 
		124.06,10.12 136.28,10.12 136.28,15.72 	"/>
	<polygon fill="#1D1D1B" points="149.97,35.73 149.97,30.17 152.75,29.44 152.75,16.45 148.76,16.45 147.7,17.29 147.66,30.83 
		141.77,35.73 137.31,35.73 137.31,30.17 140.09,29.44 140.09,15.02 145.98,10.12 162.41,10.12 162.41,15.72 160.36,16.45 
		160.36,29.44 163.14,30.17 163.14,35.73 	"/>
	<polygon fill="#1D1D1B" points="188.68,16.45 188.68,29.44 191.46,30.17 191.46,35.73 179.42,35.73 179.42,30.17 181.07,29.44 
		181.07,23.15 174.88,29 174.88,29.44 176.57,30.17 176.57,35.73 164.53,35.73 164.53,30.17 167.31,29.44 167.31,16.45 
		164.53,15.72 164.53,10.12 176.57,10.12 176.57,15.72 174.88,16.45 174.88,22.78 181.07,16.93 181.07,16.45 179.42,15.72 
		179.42,10.12 191.46,10.12 191.46,15.72 	"/>
	<polygon fill="#1D1D1B" points="217.76,16.45 217.76,29.44 220.54,30.17 220.54,35.73 208.5,35.73 208.5,30.17 210.15,29.44 
		210.15,24.97 203.96,24.97 203.96,29.44 205.65,30.17 205.65,35.73 193.61,35.73 193.61,30.17 196.39,29.44 196.39,16.45 
		193.61,15.72 193.61,10.12 205.65,10.12 205.65,15.72 203.96,16.45 203.96,20.58 210.15,20.58 210.15,16.45 208.5,15.72 
		208.5,10.12 220.54,10.12 220.54,15.72 	"/>
	<path fill="#1D1D1B" d="M290.43,16.45l-2.78-0.73v-5.6h23.67v8.27h-5.38l-0.73-1.94H298v3.22h8.45l5.3,4.43v7.17l-5.3,4.46h-18.8
		v-5.6l2.78-0.73V16.45z M303.23,29.4l0.95-0.77v-2.56l-0.95-0.8H298v4.13H303.23z"/>
	<polygon fill="#1D1D1B" points="316.03,16.45 313.25,15.72 313.25,10.12 325.32,10.12 325.32,15.72 323.64,16.45 323.64,18.79 
		324.55,19.56 329.93,19.56 329.93,16.45 328.25,15.72 328.25,10.12 340.25,10.12 340.25,15.72 337.47,16.45 337.47,30.83 
		331.58,35.73 321.63,35.73 316.43,31.41 316.43,26.77 323.24,26.77 323.97,29.44 328.8,29.44 329.9,28.56 329.9,25.12 
		321.26,25.12 316.03,20.8 	"/>
	<path fill="#1D1D1B" d="M366.06,22.49l-5.3,4.43h-8.45v2.56l2.78,0.73v5.52h-13.13v-5.56l2.78-0.73V16.45l-2.78-0.73v-5.6h18.8
		l5.3,4.46V22.49z M352.3,16.45v4.13h5.23l0.95-0.81v-2.56l-0.95-0.77H352.3z"/>
	<polygon fill="#1D1D1B" points="384.75,20.69 384.01,16.01 377.87,16.01 377.87,29.44 381.38,30.17 381.38,35.73 367.55,35.73 
		367.55,30.17 370.33,29.44 370.33,16.45 367.55,15.72 367.55,10.12 390.12,10.12 390.12,20.69 	"/>
	<polygon fill="#1D1D1B" points="408.7,19.12 407.97,16.45 401.83,16.45 401.83,20.58 407.97,20.58 407.97,24.97 401.83,24.97 
		401.83,29.44 407.97,29.44 408.7,26.77 414.12,26.77 414.12,35.73 391.51,35.73 391.51,30.17 394.29,29.44 394.29,16.45 
		391.51,15.72 391.51,10.12 414.08,10.12 414.08,19.12 	"/>
	<path fill="#1D1D1B" d="M439.89,22.49l-5.31,4.43h-8.45v2.56l2.78,0.73v5.52h-13.13v-5.56l2.78-0.73V16.45l-2.78-0.73v-5.6h18.8
		l5.31,4.46V22.49z M426.13,16.45v4.13h5.23l0.95-0.81v-2.56l-0.95-0.77H426.13z"/>
	<path fill="#1D1D1B" d="M231.29,16.45h5.05l0.73,2.67h6.84v-4.83l-4.98-4.17h-9.84v4.95l-6.41,8.91v6.85l5.89,4.9h10.13
		c1.72-1.43,3.48-2.85,5.2-4.32v-4.65h-6.84l-0.73,2.67h-5.01l-1.1-0.88V17.29L231.29,16.45z"/>
	<polygon fill="#1D1D1B" points="222.84,20.66 220.9,19.75 222.43,13.46 222.43,10.31 227.26,10.31 227.26,14.48 	"/>
	<path fill="#1D1D1B" d="M441.51,8.48c0.5,0.52,0.66,1.13,0.66,1.65c0,0.39-0.1,1.09-0.69,1.66c-0.38,0.36-0.94,0.68-1.66,0.68
		c-0.73,0-1.29-0.34-1.67-0.71c-0.36-0.37-0.67-0.91-0.67-1.63c0-0.26,0.04-0.7,0.34-1.22c0.42-0.7,1.14-1.13,1.99-1.13
		C440.47,7.78,441.06,8.03,441.51,8.48 M437.88,10.12c0,0.42,0.13,0.94,0.56,1.37c0.44,0.45,0.97,0.59,1.39,0.59
		c0.59,0,1.08-0.28,1.39-0.58c0.28-0.28,0.58-0.72,0.58-1.35c0-0.41-0.11-0.97-0.56-1.41c-0.37-0.38-0.86-0.59-1.4-0.59
		C438.81,8.17,437.88,8.99,437.88,10.12 M439.85,10.97v0.43h-1.19v-0.43h0.28V9.2h-0.28V8.79h1.23c0.43,0,0.99,0.05,0.99,0.73
		c0,0.1-0.01,0.51-0.44,0.62l0.42,0.83h0.3v0.43h-0.73l-0.59-1.15h-0.27v0.72H439.85z M439.57,9.83h0.18c0.18,0,0.47-0.01,0.47-0.32
		c0-0.32-0.32-0.32-0.48-0.32h-0.17V9.83z"/>
	<path fill-rule="evenodd" clip-rule="evenodd" fill="#F7C01A" d="M283.46,36.93h-34.1c-1.26,0-2.27-1.02-2.27-2.27v-2.02h38.63
		v2.02C285.72,35.91,284.71,36.93,283.46,36.93L283.46,36.93z"/>
	<path fill-rule="evenodd" clip-rule="evenodd" fill="#523B2F" d="M246.77,24.81h39.28c0.76,0,1.38,0.62,1.38,1.38v3.24
		c0,0.76-0.62,1.38-1.38,1.38h-39.28c-0.77,0-1.39-0.62-1.39-1.38V26.2C245.38,25.44,246.01,24.81,246.77,24.81L246.77,24.81z"/>
	<path fill-rule="evenodd" clip-rule="evenodd" fill="#F7C01A" d="M247.09,23v-0.02c0-0.19,0.02-0.38,0.07-0.56
		c0.71-6.16,9.05-11.02,19.25-11.02c10.2,0,18.55,4.86,19.25,11.02c0.05,0.18,0.07,0.37,0.07,0.56V23H247.09L247.09,23z"/>
	<path fill-rule="evenodd" clip-rule="evenodd" fill="#E20613" d="M266.51,4.42c1.25,1.74,3.02,1.95,1.06,4.4
		c-0.99,1.23,0.08,0.74,0.64,0.3c1.45-1.18,2.43-3.18,1.21-4.45c-1.52-1.57-2.22-1.52-1.24-3.9c0.32-0.78,0.47-0.89-0.26-0.25
		C266.8,1.49,265.55,3.1,266.51,4.42L266.51,4.42z"/>
	<path fill-rule="evenodd" clip-rule="evenodd" fill="#E20613" d="M263.19,5.48c1.26,1.46,3.03,1.63,1.06,3.69
		c-0.99,1.03,0.09,0.62,0.64,0.25c1.45-0.99,2.43-2.66,1.21-3.73c-1.51-1.32-2.23-1.27-1.24-3.27c0.32-0.65,0.47-0.74-0.26-0.21
		C263.48,3.03,262.24,4.38,263.19,5.48L263.19,5.48z"/>
</g>
</svg>
